mtllib LV3.mtl
# vertices
v -192 144 48
v -192 144 64
v -192 272 64
v -192 272 48
v 192 272 64
v 192 144 64
v 192 144 48
v 192 272 48
v -192 0 48
v -192 0 64
v -192 144 64
v -192 144 48
v -64 144 64
v -64 0 64
v -64 0 48
v -64 144 48
v 64 0 48
v 64 0 64
v 64 144 64
v 64 144 48
v 192 144 64
v 192 0 64
v 192 0 48
v 192 144 48
v 176 0 -1424
v 176 0 48
v 176 256 48
v 176 256 -1424
v 192 256 48
v 192 0 48
v 192 0 -1424
v 192 256 -1424
v -192 0 -1760
v -192 0 48
v -192 256 48
v -192 256 -1760
v -176 256 48
v -176 0 48
v -176 0 -1760
v -176 256 -1760
v -192 256 -1760
v -192 256 48
v -192 272 48
v -192 272 -1760
v 192 272 48
v 192 256 48
v 192 256 -1760
v 192 272 -1760
v -64 0 48
v -64 0 64
v -64 16 64
v -64 16 48
v 64 16 64
v 64 0 64
v 64 0 48
v 64 16 48
v -176 0 -1760
v -176 0 48
v -176 16 48
v -176 16 -1760
v 176 16 48
v 176 0 48
v 176 0 -1760
v 176 16 -1760
v -176 16 -1760
v -176 16 -1744
v -176 256 -1744
v -176 256 -1760
v 2496 256 -1744
v 2496 16 -1744
v 2496 16 -1760
v 2496 256 -1760
v 176 0 -1760
v 176 0 -1456
v 176 16 -1456
v 176 16 -1760
v 2496 16 -1456
v 2496 0 -1456
v 2496 0 -1760
v 2496 16 -1760
v 208 16 -1456
v 208 16 -1440
v 208 256 -1440
v 208 256 -1456
v 2496 256 -1440
v 2496 16 -1440
v 2496 16 -1456
v 2496 256 -1456
v 192 256 -1760
v 192 256 -1456
v 192 272 -1456
v 192 272 -1760
v 2496 272 -1456
v 2496 256 -1456
v 2496 256 -1760
v 2496 272 -1760
v 2480 16 -1744
v 2480 16 -1456
v 2480 256 -1456
v 2480 256 -1744
v 2496 256 -1456
v 2496 16 -1456
v 2496 16 -1744
v 2496 256 -1744
v 2480 16 -1504
v 2432 16 -1456
v 2432 256 -1456
v 2480 256 -1504
v 2480 256 -1456
v 2480 16 -1456
v 2480 256 -1696
v 2432 256 -1744
v 2432 16 -1744
v 2480 16 -1696
v 2480 16 -1744
v 2480 256 -1744
v -176 256 -1696
v -176 256 -1744
v -176 16 -1744
v -176 16 -1696
v -128 16 -1744
v -128 256 -1744
v -176 16 -0
v -176 16 48
v -176 256 48
v -176 256 -0
v -128 256 48
v -128 16 48
v 176 16 -0
v 128 16 48
v 128 256 48
v 176 256 -0
v 176 256 48
v 176 16 48
v 208 0 -1456
v 176 0 -1424
v 176 256 -1424
v 208 256 -1456
v 192 256 -1424
v 192 0 -1424
v 224 0 -1456
v 224 256 -1456
v 192 256 -1456
v 192 256 -1440
v 192 272 -1440
v 192 272 -1456
v 208 272 -1440
v 208 256 -1440
v 208 256 -1456
v 208 272 -1456
v 176 0 -1456
v 176 0 -1424
v 176 16 -1424
v 176 16 -1456
v 208 16 -1424
v 208 0 -1424
v 208 0 -1456
v 208 16 -1456

# texture coordinates
vt -1.5 4.5
vt -2 4.5
vt -2 8.5
vt -1.5 8.5
vt 6 8.5
vt -6 8.5
vt -6 4.5
vt 6 4.5
vt 6 -2
vt -6 -2
vt -6 -1.5
vt 6 -1.5
vt -1.5 -0
vt -2 -0
vt -6 -0
vt -2 -2
vt -2 -1.5
vt 2 4.5
vt 2 -0
vt 6 -0
vt 2 -2
vt 2 -1.5
vt 44.5 -0
vt -1.5 8
vt 44.5 8
vt 6 8
vt 5.5 8
vt 5.5 -0
vt 5.5 -1.5
vt 5.5 44.5
vt 6 44.5
vt 55 -0
vt 55 8
vt -5.5 8
vt -6 8
vt -5.5 -0
vt -5.5 -1.5
vt -6 55
vt -5.5 55
vt 55 8.5
vt 6 55
vt -2 0.5
vt -1.5 0.5
vt 2 0.5
vt 55 0.5
vt 5.5 0.5
vt -5.5 0.5
vt 5.5 55
vt 55 -5.5
vt 55 5.5
vt -1.5 5.5
vt -1.5 -5.5
vt 54.5 0.5
vt 54.5 8
vt 78 8
vt 78 0.5
vt 78 54.5
vt -5.5 54.5
vt 78 55
vt 45.5 -0
vt 45.5 0.5
vt 78 -0
vt 78 45.5
vt 5.5 45.5
vt 55 -78
vt 45.5 -5.5
vt 45.5 -78
vt 45 0.5
vt 45 8
vt 45.5 8
vt 6.5 8
vt 6.5 0.5
vt 78 45
vt 6.5 45
vt 6.5 45.5
vt 45.5 8.5
vt 78 8.5
vt 6 45.5
vt 77.5 8
vt 77.5 0.5
vt 77.5 45.5
vt 77.5 54.5
vt 47 0.5
vt 47 8
vt 76 8
vt 76 0.5
vt 76 45.5
vt 77.5 47
vt 53 8
vt 53 0.5
vt 53 -77.5
vt 54.5 -76
vt 54.5 -77.5
vt -77.5 0.5
vt -76 0.5
vt -76 8
vt -77.5 8
vt -53 8
vt -54.5 8
vt -54.5 0.5
vt -53 0.5
vt 5.5 -53
vt 5.5 -54.5
vt 4 -54.5
vt 4 0.5
vt 4 8
vt 0 0.5
vt 1.5 0.5
vt 1.5 8
vt 0 8
vt -4 8
vt -4 0.5
vt 1.5 -4
vt 1.5 -5.5
vt 0 -5.5
vt 4 -1.5
vt 7 45.5
vt 7 -0
vt 6.5 -0
vt 7 8
vt 45 8.5
vt 6.5 8.5
vt 6 45
vt 0 -45.5
vt 0 -44.5
vt 0.5 -44.5
vt 0.5 -45.5
vt 0.5 -6.5
vt 0.5 -5.5
vt 0 -6.5
vt 44.5 -6.5
vt 44.5 -5.5
vt 45.5 -6.5

# face normals
vn -1 0 0
vn 0 0 1
vn 0 -1 -0
vn -0 1 -0
vn 0 -0 -1
vn 1 0 0
vn -0.70710678118654746 0 -0.70710678118654746
vn -0.70710678118654746 0 0.70710678118654746
vn 0.70710678118654746 0 0.70710678118654746
vn 0.70710678118654746 -0 -0.70710678118654746

# objects
o entity0_brush0
usemtl test/wall_3
f 1/1/1 2/2/1 3/3/1 4/4/1
usemtl test/wall_3
f 5/5/2 3/6/2 2/7/2 6/8/2
usemtl test/wall_3
f 6/9/3 2/10/3 1/11/3 7/12/3
usemtl test/wall_3
f 8/12/4 4/11/4 3/10/4 5/9/4
usemtl test/wall_3
f 7/8/5 1/7/5 4/6/5 8/5/5
usemtl test/wall_3
f 8/4/6 5/3/6 6/2/6 7/1/6

o entity0_brush1
usemtl test/wall_3
f 9/13/1 10/14/1 11/2/1 12/1/1
usemtl test/wall_3
f 13/2/2 11/7/2 10/15/2 14/14/2
usemtl test/wall_3
f 14/16/3 10/10/3 9/11/3 15/17/3
usemtl test/wall_3
f 16/17/4 12/11/4 11/10/4 13/16/4
usemtl test/wall_3
f 15/14/5 9/15/5 12/7/5 16/2/5
usemtl test/wall_3
f 16/1/6 13/2/6 14/14/6 15/13/6

o entity0_brush2
usemtl test/wall_3
f 17/13/1 18/14/1 19/2/1 20/1/1
usemtl test/wall_3
f 21/8/2 19/18/2 18/19/2 22/20/2
usemtl test/wall_3
f 22/9/3 18/21/3 17/22/3 23/12/3
usemtl test/wall_3
f 24/12/4 20/22/4 19/21/4 21/9/4
usemtl test/wall_3
f 23/20/5 17/19/5 20/18/5 24/8/5
usemtl test/wall_3
f 24/1/6 21/2/6 22/14/6 23/13/6

o entity0_brush3
usemtl test/wall_3
f 25/23/1 26/13/1 27/24/1 28/25/1
usemtl test/wall_3
f 29/26/2 27/27/2 26/28/2 30/20/2
usemtl test/wall_3
f 30/12/3 26/29/3 25/30/3 31/31/3
usemtl test/wall_3
f 32/31/4 28/30/4 27/29/4 29/12/4
usemtl test/wall_3
f 31/20/5 25/28/5 28/27/5 32/26/5
usemtl test/wall_3
f 32/25/6 29/24/6 30/13/6 31/23/6

o entity0_brush4
usemtl test/wall_3
f 33/32/1 34/13/1 35/24/1 36/33/1
usemtl test/wall_3
f 37/34/2 35/35/2 34/15/2 38/36/2
usemtl test/wall_3
f 38/37/3 34/11/3 33/38/3 39/39/3
usemtl test/wall_3
f 40/39/4 36/38/4 35/11/4 37/37/4
usemtl test/wall_3
f 39/36/5 33/15/5 36/35/5 40/34/5
usemtl test/wall_3
f 40/33/6 37/24/6 38/13/6 39/32/6

o entity0_brush5
usemtl test/wall_3
f 41/33/1 42/24/1 43/4/1 44/40/1
usemtl test/wall_3
f 45/5/2 43/6/2 42/35/2 46/26/2
usemtl test/wall_3
f 46/12/3 42/11/3 41/38/3 47/41/3
usemtl test/wall_3
f 48/41/4 44/38/4 43/11/4 45/12/4
usemtl test/wall_3
f 47/26/5 41/35/5 44/6/5 48/5/5
usemtl test/wall_3
f 48/40/6 45/4/6 46/24/6 47/33/6

o entity0_brush6
usemtl test/wall_3
f 49/13/1 50/14/1 51/42/1 52/43/1
usemtl test/wall_3
f 53/44/2 51/42/2 50/14/2 54/19/2
usemtl test/wall_3
f 54/21/3 50/16/3 49/17/3 55/22/3
usemtl test/wall_3
f 56/22/4 52/17/4 51/16/4 53/21/4
usemtl test/wall_3
f 55/19/5 49/14/5 52/42/5 56/44/5
usemtl test/wall_3
f 56/43/6 53/42/6 54/14/6 55/13/6

o entity0_brush7
usemtl test/wall_3
f 57/32/1 58/13/1 59/43/1 60/45/1
usemtl test/wall_3
f 61/46/2 59/47/2 58/36/2 62/28/2
usemtl test/wall_3
f 62/29/3 58/37/3 57/39/3 63/48/3
usemtl test/metalic_floor
f 64/49/4 60/50/4 59/51/4 61/52/4
usemtl test/wall_3
f 63/28/5 57/36/5 60/47/5 64/46/5
usemtl test/wall_3
f 64/45/6 61/43/6 62/13/6 63/32/6

o entity0_brush8
usemtl test/wall_3
f 65/45/1 66/53/1 67/54/1 68/33/1
usemtl test/wall_3
f 69/55/2 67/34/2 66/47/2 70/56/2
usemtl test/wall_3
f 70/57/3 66/58/3 65/39/3 71/59/3
usemtl test/wall_3
f 72/59/4 68/39/4 67/58/4 69/57/4
usemtl test/wall_3
f 71/56/5 65/47/5 68/34/5 72/55/5
usemtl test/wall_3
f 72/33/6 69/54/6 70/53/6 71/45/6

o entity0_brush9
usemtl test/wall_3
f 73/32/1 74/60/1 75/61/1 76/45/1
usemtl test/wall_3
f 77/56/2 75/46/2 74/28/2 78/62/2
usemtl test/wall_3
f 78/63/3 74/64/3 73/48/3 79/59/3
usemtl test/metalic_floor
f 80/65/4 76/49/4 75/66/4 77/67/4
usemtl test/wall_3
f 79/62/5 73/28/5 76/46/5 80/56/5
usemtl test/wall_3
f 80/45/6 77/61/6 78/60/6 79/32/6

o entity0_brush10
usemtl test/wall_3
f 81/61/1 82/68/1 83/69/1 84/70/1
usemtl test/wall_3
f 85/55/2 83/71/2 82/72/2 86/56/2
usemtl test/wall_3
f 86/73/3 82/74/3 81/75/3 87/63/3
usemtl test/wall_3
f 88/63/4 84/75/4 83/74/4 85/73/4
usemtl test/wall_3
f 87/56/5 81/72/5 84/71/5 88/55/5
usemtl test/wall_3
f 88/70/6 85/69/6 86/68/6 87/61/6

o entity0_brush11
usemtl test/wall_3
f 89/33/1 90/70/1 91/76/1 92/40/1
usemtl test/wall_3
f 93/77/2 91/5/2 90/26/2 94/55/2
usemtl test/wall_3
f 94/63/3 90/78/3 89/41/3 95/59/3
usemtl test/wall_3
f 96/59/4 92/41/4 91/78/4 93/63/4
usemtl test/wall_3
f 95/55/5 89/26/5 92/5/5 96/77/5
usemtl test/wall_3
f 96/40/6 93/76/6 94/70/6 95/33/6

o entity0_brush12
usemtl test/wall_3
f 97/53/1 98/61/1 99/70/1 100/54/1
usemtl test/wall_3
f 101/55/2 99/79/2 98/80/2 102/56/2
usemtl test/wall_3
f 102/63/3 98/81/3 97/82/3 103/57/3
usemtl test/wall_3
f 104/57/4 100/82/4 99/81/4 101/63/4
usemtl test/wall_3
f 103/56/5 97/80/5 100/79/5 104/55/5
usemtl test/wall_3
f 104/54/6 101/70/6 102/61/6 103/53/6

o entity0_brush13
usemtl test/plates
f 105/83/7 106/61/7 107/70/7 108/84/7
usemtl test/wall_3
f 109/79/2 107/85/2 106/86/2 110/80/2
usemtl test/wall_3
f 110/81/3 106/87/3 105/88/3
usemtl test/wall_3
f 108/88/4 107/87/4 109/81/4
usemtl test/wall_3
f 110/61/6 105/83/6 108/84/6 109/70/6

o entity0_brush14
usemtl test/plates
f 111/89/8 112/54/8 113/53/8 114/90/8
usemtl test/wall_3
f 114/91/3 113/92/3 115/93/3
usemtl test/wall_3
f 116/93/4 112/92/4 111/91/4
usemtl test/wall_3
f 115/94/5 113/95/5 112/96/5 116/97/5
usemtl test/wall_3
f 111/89/6 114/90/6 115/53/6 116/54/6

o entity0_brush15
usemtl test/wall_3
f 117/98/1 118/99/1 119/100/1 120/101/1
usemtl test/wall_3
f 120/102/3 119/103/3 121/104/3
usemtl test/wall_3
f 122/104/4 118/103/4 117/102/4
usemtl test/wall_3
f 121/105/5 119/46/5 118/27/5 122/106/5
usemtl test/plates
f 117/98/9 120/101/9 121/100/9 122/99/9

o entity0_brush16
usemtl test/wall_3
f 123/107/1 124/108/1 125/109/1 126/110/1
usemtl test/wall_3
f 127/111/2 125/34/2 124/47/2 128/112/2
usemtl test/wall_3
f 128/113/3 124/114/3 123/115/3
usemtl test/wall_3
f 126/115/4 125/114/4 127/113/4
usemtl test/plates
f 128/108/10 123/107/10 126/110/10 127/109/10

o entity0_brush17
usemtl test/plates
f 129/107/7 130/43/7 131/24/7 132/110/7
usemtl test/wall_3
f 133/27/2 131/106/2 130/105/2 134/46/2
usemtl test/wall_3
f 134/29/3 130/116/3 129/28/3
usemtl test/wall_3
f 132/28/4 131/116/4 133/29/4
usemtl test/wall_3
f 134/43/6 129/107/6 132/110/6 133/24/6

o entity0_brush18
usemtl test/plates
f 135/60/7 136/23/7 137/25/7 138/70/7
usemtl test/wall_3
f 139/26/2 137/27/2 136/28/2 140/20/2
usemtl test/wall_3
f 140/31/3 136/30/3 135/75/3 141/117/3
usemtl test/wall_3
f 142/117/4 138/75/4 137/30/4 139/31/4
usemtl test/wall_3
f 141/118/5 135/119/5 138/71/5 142/120/5
usemtl test/wall_3
f 142/70/9 139/25/9 140/23/9 141/60/9

o entity0_brush19
usemtl test/wall_3
f 143/70/1 144/69/1 145/121/1 146/76/1
usemtl test/wall_3
f 147/122/2 145/5/2 144/26/2 148/71/2
usemtl test/wall_3
f 148/74/3 144/123/3 143/78/3 149/75/3
usemtl test/wall_3
f 150/75/4 146/78/4 145/123/4 147/74/4
usemtl test/wall_3
f 149/71/5 143/26/5 146/5/5 150/122/5
usemtl test/wall_3
f 150/76/6 147/121/6 148/69/6 149/70/6

o entity0_brush20
usemtl test/metalic_floor
f 151/124/1 152/125/1 153/126/1 154/127/1
usemtl test/metalic_floor
f 155/128/2 153/129/2 152/115/2 156/130/2
usemtl test/metalic_floor
f 156/131/3 152/132/3 151/66/3 157/133/3
usemtl test/metalic_floor
f 158/133/4 154/66/4 153/132/4 155/131/4
usemtl test/metalic_floor
f 157/130/5 151/115/5 154/129/5 158/128/5
usemtl test/metalic_floor
f 158/127/6 155/126/6 156/125/6 157/124/6

