mtllib LV6.mtl
# vertices
v -64 -1824 -64
v -64 -1824 144
v -64 16 144
v -64 16 -64
v 3168 16 144
v 3168 -1824 144
v 3168 -1824 -64
v 3168 16 -64
v -80 144 -64
v -80 144 1840
v -80 160 1840
v -80 160 -64
v 3168 160 1840
v 3168 144 1840
v 3168 144 -64
v 3168 160 -64
v -80 -1824 -64
v -80 -1824 1840
v -80 144 1840
v -80 144 -64
v -64 144 1840
v -64 -1824 1840
v -64 -1824 -64
v -64 144 -64
v 64 16 -64
v 64 16 144
v 64 144 144
v 64 144 -64
v 3168 144 144
v 3168 16 144
v 3168 16 -64
v 3168 144 -64
v -80 -1824 1840
v -80 -1824 1856
v -80 160 1856
v -80 160 1840
v 3168 160 1856
v 3168 -1824 1856
v 3168 -1824 1840
v 3168 160 1840
v 3168 -1824 -64
v 3168 -1824 1856
v 3168 160 1856
v 3168 160 -64
v 3184 160 1856
v 3184 -1824 1856
v 3184 -1824 -64
v 3184 160 -64
v 3040 -1168 144
v 3040 -1168 1840
v 3040 -1152 1840
v 3040 -1152 144
v 3168 -1152 1840
v 3168 -1168 1840
v 3168 -1168 144
v 3168 -1152 144
v 64 -768 144
v 64 -784 144
v 64 -784 272
v 64 -768 272
v 3040 -1168 272
v 3040 -1168 144
v 3040 -1152 272
v 3040 -1152 144
v -64 -784 144
v -64 -784 272
v -64 -768 272
v -64 -768 144
v 64 -768 272
v 64 -784 272
v 64 -784 144
v 64 -768 144
v -64 0 144
v -64 0 272
v -64 16 272
v -64 16 144
v 64 16 272
v 64 0 272
v 64 0 144
v 64 16 144
v -64 0 272
v -64 0 288
v -64 144 288
v -64 144 272
v 64 144 288
v 64 0 288
v 64 0 272
v 64 144 272
v 64 16 144
v 64 0 144
v 64 0 272
v 64 16 272
v 3040 -384 272
v 3040 -384 144
v 3040 -368 272
v 3040 -368 144
v 3040 -384 144
v 3040 -384 272
v 3040 -368 272
v 3040 -368 144
v 3168 -368 272
v 3168 -384 272
v 3168 -384 144
v 3168 -368 144

# texture coordinates
vt 0.20000000298023224 -5.6999998092651367
vt -0.44999998807907104 -5.6999998092651367
vt -0.44999998807907104 0.05000000074505806
vt 0.20000000298023224 0.05000000074505806
vt 9.8999996185302734 0.05000000074505806
vt -0.20000000298023224 0.05000000074505806
vt -0.20000000298023224 -5.6999998092651367
vt 9.8999996185302734 -5.6999998092651367
vt 9.8999996185302734 -0.44999998807907104
vt -0.20000000298023224 -0.44999998807907104
vt -0.20000000298023224 0.20000000298023224
vt 9.8999996185302734 0.20000000298023224
vt 0.20000000298023224 0.44999998807907104
vt -5.75 0.44999998807907104
vt -5.75 0.5
vt 0.20000000298023224 0.5
vt 9.8999996185302734 0.5
vt -0.25 0.5
vt -0.25 0.44999998807907104
vt 9.8999996185302734 0.44999998807907104
vt 9.8999996185302734 -5.75
vt -0.25 -5.75
vt -0.25 0.20000000298023224
vt -5.75 -5.6999998092651367
vt -0.20000000298023224 0.44999998807907104
vt -0.25 -5.6999998092651367
vt -0.20000000298023224 -5.75
vt -0.44999998807907104 0.44999998807907104
vt 0.20000000298023224 -0.44999998807907104
vt 0.20000000298023224 0.20000000298023224
vt -5.8000001907348633 -5.6999998092651367
vt -5.8000001907348633 0.5
vt 9.8999996185302734 -5.8000001907348633
vt -0.25 -5.8000001907348633
vt 9.9499998092651367 0.5
vt 9.9499998092651367 -5.6999998092651367
vt 9.9499998092651367 -5.8000001907348633
vt 9.9499998092651367 0.20000000298023224
vt -4.5 -36.5
vt -57.5 -36.5
vt -57.5 -36
vt -4.5 -36
vt 99 -36
vt 95 -36
vt 95 -36.5
vt 99 -36.5
vt 99 -57.5
vt 95 -57.5
vt 95 -4.5
vt 99 -4.5
vt -4.5 -24
vt -4.5 -24.5
vt -8.5 -24.5
vt -8.5 -24
vt 95 -8.5
vt 2 -8.5
vt 2 -4.5
vt 2 -24
vt 2 -24.5
vt -8.5 -36
vt -8.5 -36.5
vt -2 -24
vt -2 -24.5
vt -2 -8.5
vt -2 -4.5
vt -4.5 -0
vt -8.5 -0
vt -8.5 0.5
vt -4.5 0.5
vt 2 0.5
vt -2 0.5
vt -2 -0
vt 2 -0
vt -9 -0
vt -9 4.5
vt -8.5 4.5
vt 2 4.5
vt -2 4.5
vt 2 -9
vt -2 -9
vt -4.5 -0.5
vt -8.5 -0.5
vt 95 -12
vt 2 -0.5
vt 95 -12.5
vt -4.5 -12.5
vt -4.5 -12
vt -8.5 -12
vt -8.5 -12.5
vt 99 -12
vt 99 -12.5
vt 99 -8.5

# face normals
vn -1 0 0
vn 0 0 1
vn 0 -1 -0
vn -0 1 -0
vn 0 -0 -1
vn 1 0 0
vn -0.1279713376301968 -0.99177786663402512 -0
vn 0.1279713376301968 0.99177786663402512 -0

# objects
o entity0_brush0
usemtl test/wall_2
f 1/1/1 2/2/1 3/3/1 4/4/1
usemtl test/wall_2
f 5/5/2 3/6/2 2/7/2 6/8/2
usemtl test/wall_2
f 6/9/3 2/10/3 1/11/3 7/12/3
usemtl test/metalic_floor
f 8/12/4 4/11/4 3/10/4 5/9/4
usemtl test/wall_2
f 7/8/5 1/7/5 4/6/5 8/5/5
usemtl test/wall_2
f 8/4/6 5/3/6 6/2/6 7/1/6

o entity0_brush1
usemtl test/wall_2
f 9/13/1 10/14/1 11/15/1 12/16/1
usemtl test/wall_2
f 13/17/2 11/18/2 10/19/2 14/20/2
usemtl test/wall_2
f 14/21/3 10/22/3 9/23/3 15/12/3
usemtl test/wall_2
f 16/12/4 12/23/4 11/22/4 13/21/4
usemtl test/wall_2
f 15/20/5 9/19/5 12/18/5 16/17/5
usemtl test/wall_2
f 16/16/6 13/15/6 14/14/6 15/13/6

o entity0_brush2
usemtl test/wall_2
f 17/1/1 18/24/1 19/14/1 20/13/1
usemtl test/wall_2
f 21/25/2 19/19/2 18/26/2 22/7/2
usemtl test/wall_2
f 22/27/3 18/22/3 17/23/3 23/11/3
usemtl test/wall_2
f 24/11/4 20/23/4 19/22/4 21/27/4
usemtl test/wall_2
f 23/7/5 17/26/5 20/19/5 24/25/5
usemtl test/wall_2
f 24/13/6 21/14/6 22/24/6 23/1/6

o entity0_brush3
usemtl test/wall_2
f 25/4/1 26/3/1 27/28/1 28/13/1
usemtl test/wall_2
f 29/20/2 27/13/2 26/4/2 30/5/2
usemtl test/wall_2
f 30/9/3 26/29/3 25/30/3 31/12/3
usemtl test/wall_2
f 32/12/4 28/30/4 27/29/4 29/9/4
usemtl test/wall_2
f 31/5/5 25/4/5 28/13/5 32/20/5
usemtl test/wall_2
f 32/13/6 29/28/6 30/3/6 31/4/6

o entity0_brush4
usemtl test/wall_2
f 33/24/1 34/31/1 35/32/1 36/15/1
usemtl test/wall_2
f 37/17/2 35/18/2 34/26/2 38/8/2
usemtl test/wall_2
f 38/33/3 34/34/3 33/22/3 39/21/3
usemtl test/wall_2
f 40/21/4 36/22/4 35/34/4 37/33/4
usemtl test/wall_2
f 39/8/5 33/26/5 36/18/5 40/17/5
usemtl test/wall_2
f 40/15/6 37/32/6 38/31/6 39/24/6

o entity0_brush5
usemtl test/wall_2
f 41/1/1 42/31/1 43/32/1 44/16/1
usemtl test/wall_2
f 45/35/2 43/17/2 42/8/2 46/36/2
usemtl test/wall_2
f 46/37/3 42/33/3 41/12/3 47/38/3
usemtl test/wall_2
f 48/38/4 44/12/4 43/33/4 45/37/4
usemtl test/wall_2
f 47/36/5 41/8/5 44/17/5 48/35/5
usemtl test/wall_2
f 48/16/6 45/32/6 46/31/6 47/1/6

o entity0_brush6
usemtl test/plates
f 49/39/1 50/40/1 51/41/1 52/42/1
usemtl test/wall_2
f 53/43/2 51/44/2 50/45/2 54/46/2
usemtl test/plates
f 54/47/3 50/48/3 49/49/3 55/50/3
usemtl test/metalic_floor
f 56/50/4 52/49/4 51/48/4 53/47/4
usemtl test/wall_2
f 55/46/5 49/45/5 52/44/5 56/43/5
usemtl test/wall_2
f 56/42/6 53/41/6 54/40/6 55/39/6

o entity0_brush7
usemtl test/wall_2
f 57/51/1 58/52/1 59/53/1 60/54/1
usemtl test/plates
f 61/55/7 59/56/7 58/57/7 62/49/7
usemtl test/plates
f 63/44/2 60/58/2 59/59/2 61/45/2
usemtl test/wall_2
f 62/45/5 58/59/5 57/58/5 64/44/5
usemtl test/metalic_floor
f 64/49/8 57/57/8 60/56/8 63/55/8
usemtl test/wall_2
f 62/39/6 64/42/6 63/60/6 61/61/6

o entity0_brush8
usemtl test/wall_2
f 65/52/1 66/53/1 67/54/1 68/51/1
usemtl test/plates
f 69/58/2 67/62/2 66/63/2 70/59/2
usemtl test/plates
f 70/56/3 66/64/3 65/65/3 71/57/3
usemtl test/metalic_floor
f 72/57/4 68/65/4 67/64/4 69/56/4
usemtl test/wall_2
f 71/59/5 65/63/5 68/62/5 72/58/5
usemtl test/wall_2
f 72/51/6 69/54/6 70/53/6 71/52/6

o entity0_brush9
usemtl test/wall_2
f 73/66/1 74/67/1 75/68/1 76/69/1
usemtl test/wall_2
f 77/70/2 75/71/2 74/72/2 78/73/2
usemtl test/plates
f 78/56/3 74/64/3 73/65/3 79/57/3
usemtl test/metalic_floor
f 80/57/4 76/65/4 75/64/4 77/56/4
usemtl test/wall_2
f 79/73/5 73/72/5 76/71/5 80/70/5
usemtl test/wall_2
f 80/69/6 77/68/6 78/67/6 79/66/6

o entity0_brush10
usemtl test/goal_texture
f 81/67/1 82/74/1 83/75/1 84/76/1
usemtl test/goal_texture
f 85/77/2 83/78/2 82/72/2 86/73/2
usemtl test/goal_texture
f 86/79/3 82/80/3 81/64/3 87/56/3
usemtl test/goal_texture
f 88/56/4 84/64/4 83/80/4 85/79/4
usemtl test/goal_texture
f 87/73/5 81/72/5 84/78/5 88/77/5
usemtl test/goal_texture
f 88/76/6 85/75/6 86/74/6 87/67/6

o entity0_brush11
usemtl test/plates
f 89/66/1 90/81/1 91/82/1 92/67/1
usemtl test/plates
f 93/55/7 91/56/7 90/57/7 94/49/7
usemtl test/plates
f 95/83/2 92/73/2 91/84/2 93/85/2
usemtl test/plates
f 94/85/5 90/84/5 89/73/5 96/83/5
usemtl test/metalic_floor
f 96/49/8 89/57/8 92/56/8 95/55/8
usemtl test/plates
f 94/86/6 96/87/6 95/88/6 93/89/6

o entity0_brush12
usemtl test/wall_2
f 97/86/1 98/89/1 99/88/1 100/87/1
usemtl test/plates
f 101/90/2 99/83/2 98/85/2 102/91/2
usemtl test/plates
f 102/92/3 98/55/3 97/49/3 103/50/3
usemtl test/metalic_floor
f 104/50/4 100/49/4 99/55/4 101/92/4
usemtl test/wall_2
f 103/91/5 97/85/5 100/83/5 104/90/5
usemtl test/wall_2
f 104/87/6 101/88/6 102/89/6 103/86/6

