mtllib LV6.mtl
# vertices
v -64 -1824 -64
v -64 -1824 144
v -64 16 144
v -64 16 -64
v 3168 16 144
v 3168 -1824 144
v 3168 -1824 -64
v 3168 16 -64
v -80 144 -64
v -80 144 1840
v -80 160 1840
v -80 160 -64
v 3168 160 1840
v 3168 144 1840
v 3168 144 -64
v 3168 160 -64
v -80 -1824 -64
v -80 -1824 1840
v -80 144 1840
v -80 144 -64
v -64 144 1840
v -64 -1824 1840
v -64 -1824 -64
v -64 144 -64
v 64 16 -64
v 64 16 144
v 64 144 144
v 64 144 -64
v 3168 144 144
v 3168 16 144
v 3168 16 -64
v 3168 144 -64
v -80 -1824 1840
v -80 -1824 1856
v -80 160 1856
v -80 160 1840
v 3168 160 1856
v 3168 -1824 1856
v 3168 -1824 1840
v 3168 160 1840
v 3168 -1824 -64
v 3168 -1824 1856
v 3168 160 1856
v 3168 160 -64
v 3184 160 1856
v 3184 -1824 1856
v 3184 -1824 -64
v 3184 160 -64
v 3040 -1168 144
v 3040 -1168 1840
v 3040 -1152 1840
v 3040 -1152 144
v 3168 -1152 1840
v 3168 -1168 1840
v 3168 -1168 144
v 3168 -1152 144
v 64 -768 144
v 64 -784 144
v 64 -784 272
v 64 -768 272
v 3040 -1168 272
v 3040 -1168 144
v 3040 -1152 272
v 3040 -1152 144
v -64 -784 144
v -64 -784 272
v -64 -768 272
v -64 -768 144
v 64 -768 272
v 64 -784 272
v 64 -784 144
v 64 -768 144
v -64 0 144
v -64 0 272
v -64 16 272
v -64 16 144
v 64 16 272
v 64 0 272
v 64 0 144
v 64 16 144
v -64 0 272
v -64 0 288
v -64 144 288
v -64 144 272
v 64 144 288
v 64 0 288
v 64 0 272
v 64 144 272
v 64 16 144
v 64 0 144
v 64 0 272
v 64 16 272
v 3040 -384 272
v 3040 -384 144
v 3040 -368 272
v 3040 -368 144
v 3040 -384 144
v 3040 -384 272
v 3040 -368 272
v 3040 -368 144
v 3168 -368 272
v 3168 -384 272
v 3168 -384 144
v 3168 -368 144

# texture coordinates
vt 0.20000000298023224 -5.6999998092651367
vt -0.44999998807907104 -5.6999998092651367
vt -0.44999998807907104 0.05000000074505806
vt 0.20000000298023224 0.05000000074505806
vt 9.8999996185302734 0.05000000074505806
vt -0.20000000298023224 0.05000000074505806
vt -0.20000000298023224 -5.6999998092651367
vt 9.8999996185302734 -5.6999998092651367
vt 9.8999996185302734 -0.44999998807907104
vt -0.20000000298023224 -0.44999998807907104
vt -0.20000000298023224 0.20000000298023224
vt 9.8999996185302734 0.20000000298023224
vt 99 2
vt -2 2
vt -2 -4.5
vt 99 -4.5
vt 0.20000000298023224 0.44999998807907104
vt -5.75 0.44999998807907104
vt -5.75 0.5
vt 0.20000000298023224 0.5
vt 9.8999996185302734 0.5
vt -0.25 0.5
vt -0.25 0.44999998807907104
vt 9.8999996185302734 0.44999998807907104
vt 9.8999996185302734 -5.75
vt -0.25 -5.75
vt -0.25 0.20000000298023224
vt -5.75 -5.6999998092651367
vt -0.20000000298023224 0.44999998807907104
vt -0.25 -5.6999998092651367
vt -0.20000000298023224 -5.75
vt -0.44999998807907104 0.44999998807907104
vt 0.20000000298023224 -0.44999998807907104
vt 0.20000000298023224 0.20000000298023224
vt -5.8000001907348633 -5.6999998092651367
vt -5.8000001907348633 0.5
vt 9.8999996185302734 -5.8000001907348633
vt -0.25 -5.8000001907348633
vt 9.9499998092651367 0.5
vt 9.9499998092651367 -5.6999998092651367
vt 9.9499998092651367 -5.8000001907348633
vt 9.9499998092651367 0.20000000298023224
vt -4.5 -36.5
vt -57.5 -36.5
vt -57.5 -36
vt -4.5 -36
vt 99 -36
vt 95 -36
vt 95 -36.5
vt 99 -36.5
vt 99 -57.5
vt 95 -57.5
vt 95 -4.5
vt -4.5 -24
vt -4.5 -24.5
vt -8.5 -24.5
vt -8.5 -24
vt 95 -8.5
vt 2 -8.5
vt 2 -4.5
vt 2 -24
vt 2 -24.5
vt -8.5 -36
vt -8.5 -36.5
vt -2 -24
vt -2 -24.5
vt -2 -8.5
vt -4.5 -0
vt -8.5 -0
vt -8.5 0.5
vt -4.5 0.5
vt 2 0.5
vt -2 0.5
vt -2 -0
vt 2 -0
vt -9 -0
vt -9 4.5
vt -8.5 4.5
vt 2 4.5
vt -2 4.5
vt 2 -9
vt -2 -9
vt -4.5 -0.5
vt -8.5 -0.5
vt 95 -12
vt 2 -0.5
vt 95 -12.5
vt -4.5 -12.5
vt -4.5 -12
vt -8.5 -12
vt -8.5 -12.5
vt 99 -12
vt 99 -12.5
vt 99 -8.5

# face normals
vn -1 0 0
vn 0 0 1
vn 0 -1 -0
vn -0 1 -0
vn 0 -0 -1
vn 1 0 0
vn -0.1279713376301968 -0.99177786663402512 -0
vn 0.1279713376301968 0.99177786663402512 -0

# objects
o entity0_brush0
usemtl test/wall_2
f 1/1/1 2/2/1 3/3/1 4/4/1
usemtl test/wall_2
f 5/5/2 3/6/2 2/7/2 6/8/2
usemtl test/wall_2
f 6/9/3 2/10/3 1/11/3 7/12/3
usemtl test/metalic_floor
f 8/13/4 4/14/4 3/15/4 5/16/4
usemtl test/wall_2
f 7/8/5 1/7/5 4/6/5 8/5/5
usemtl test/wall_2
f 8/4/6 5/3/6 6/2/6 7/1/6

o entity0_brush1
usemtl test/wall_2
f 9/17/1 10/18/1 11/19/1 12/20/1
usemtl test/wall_2
f 13/21/2 11/22/2 10/23/2 14/24/2
usemtl test/wall_2
f 14/25/3 10/26/3 9/27/3 15/12/3
usemtl test/wall_2
f 16/12/4 12/27/4 11/26/4 13/25/4
usemtl test/wall_2
f 15/24/5 9/23/5 12/22/5 16/21/5
usemtl test/wall_2
f 16/20/6 13/19/6 14/18/6 15/17/6

o entity0_brush2
usemtl test/wall_2
f 17/1/1 18/28/1 19/18/1 20/17/1
usemtl test/wall_2
f 21/29/2 19/23/2 18/30/2 22/7/2
usemtl test/wall_2
f 22/31/3 18/26/3 17/27/3 23/11/3
usemtl test/wall_2
f 24/11/4 20/27/4 19/26/4 21/31/4
usemtl test/wall_2
f 23/7/5 17/30/5 20/23/5 24/29/5
usemtl test/wall_2
f 24/17/6 21/18/6 22/28/6 23/1/6

o entity0_brush3
usemtl test/wall_2
f 25/4/1 26/3/1 27/32/1 28/17/1
usemtl test/wall_2
f 29/24/2 27/17/2 26/4/2 30/5/2
usemtl test/wall_2
f 30/9/3 26/33/3 25/34/3 31/12/3
usemtl test/wall_2
f 32/12/4 28/34/4 27/33/4 29/9/4
usemtl test/wall_2
f 31/5/5 25/4/5 28/17/5 32/24/5
usemtl test/wall_2
f 32/17/6 29/32/6 30/3/6 31/4/6

o entity0_brush4
usemtl test/wall_2
f 33/28/1 34/35/1 35/36/1 36/19/1
usemtl test/wall_2
f 37/21/2 35/22/2 34/30/2 38/8/2
usemtl test/wall_2
f 38/37/3 34/38/3 33/26/3 39/25/3
usemtl test/wall_2
f 40/25/4 36/26/4 35/38/4 37/37/4
usemtl test/wall_2
f 39/8/5 33/30/5 36/22/5 40/21/5
usemtl test/wall_2
f 40/19/6 37/36/6 38/35/6 39/28/6

o entity0_brush5
usemtl test/wall_2
f 41/1/1 42/35/1 43/36/1 44/20/1
usemtl test/wall_2
f 45/39/2 43/21/2 42/8/2 46/40/2
usemtl test/wall_2
f 46/41/3 42/37/3 41/12/3 47/42/3
usemtl test/wall_2
f 48/42/4 44/12/4 43/37/4 45/41/4
usemtl test/wall_2
f 47/40/5 41/8/5 44/21/5 48/39/5
usemtl test/wall_2
f 48/20/6 45/36/6 46/35/6 47/1/6

o entity0_brush6
usemtl test/plates
f 49/43/1 50/44/1 51/45/1 52/46/1
usemtl test/wall_2
f 53/47/2 51/48/2 50/49/2 54/50/2
usemtl test/plates
f 54/51/3 50/52/3 49/53/3 55/16/3
usemtl test/metalic_floor
f 56/16/4 52/53/4 51/52/4 53/51/4
usemtl test/wall_2
f 55/50/5 49/49/5 52/48/5 56/47/5
usemtl test/wall_2
f 56/46/6 53/45/6 54/44/6 55/43/6

o entity0_brush7
usemtl test/wall_2
f 57/54/1 58/55/1 59/56/1 60/57/1
usemtl test/plates
f 61/58/7 59/59/7 58/60/7 62/53/7
usemtl test/plates
f 63/48/2 60/61/2 59/62/2 61/49/2
usemtl test/wall_2
f 62/49/5 58/62/5 57/61/5 64/48/5
usemtl test/metalic_floor
f 64/53/8 57/60/8 60/59/8 63/58/8
usemtl test/wall_2
f 62/43/6 64/46/6 63/63/6 61/64/6

o entity0_brush8
usemtl test/wall_2
f 65/55/1 66/56/1 67/57/1 68/54/1
usemtl test/plates
f 69/61/2 67/65/2 66/66/2 70/62/2
usemtl test/plates
f 70/59/3 66/67/3 65/15/3 71/60/3
usemtl test/metalic_floor
f 72/60/4 68/15/4 67/67/4 69/59/4
usemtl test/wall_2
f 71/62/5 65/66/5 68/65/5 72/61/5
usemtl test/wall_2
f 72/54/6 69/57/6 70/56/6 71/55/6

o entity0_brush9
usemtl test/wall_2
f 73/68/1 74/69/1 75/70/1 76/71/1
usemtl test/wall_2
f 77/72/2 75/73/2 74/74/2 78/75/2
usemtl test/plates
f 78/59/3 74/67/3 73/15/3 79/60/3
usemtl test/metalic_floor
f 80/60/4 76/15/4 75/67/4 77/59/4
usemtl test/wall_2
f 79/75/5 73/74/5 76/73/5 80/72/5
usemtl test/wall_2
f 80/71/6 77/70/6 78/69/6 79/68/6

o entity0_brush10
usemtl test/goal_texture
f 81/69/1 82/76/1 83/77/1 84/78/1
usemtl test/goal_texture
f 85/79/2 83/80/2 82/74/2 86/75/2
usemtl test/goal_texture
f 86/81/3 82/82/3 81/67/3 87/59/3
usemtl test/goal_texture
f 88/59/4 84/67/4 83/82/4 85/81/4
usemtl test/goal_texture
f 87/75/5 81/74/5 84/80/5 88/79/5
usemtl test/goal_texture
f 88/78/6 85/77/6 86/76/6 87/69/6

o entity0_brush11
usemtl test/plates
f 89/68/1 90/83/1 91/84/1 92/69/1
usemtl test/plates
f 93/58/7 91/59/7 90/60/7 94/53/7
usemtl test/plates
f 95/85/2 92/75/2 91/86/2 93/87/2
usemtl test/plates
f 94/87/5 90/86/5 89/75/5 96/85/5
usemtl test/metalic_floor
f 96/53/8 89/60/8 92/59/8 95/58/8
usemtl test/plates
f 94/88/6 96/89/6 95/90/6 93/91/6

o entity0_brush12
usemtl test/wall_2
f 97/88/1 98/91/1 99/90/1 100/89/1
usemtl test/plates
f 101/92/2 99/85/2 98/87/2 102/93/2
usemtl test/plates
f 102/94/3 98/58/3 97/53/3 103/16/3
usemtl test/metalic_floor
f 104/16/4 100/53/4 99/58/4 101/94/4
usemtl test/wall_2
f 103/93/5 97/87/5 100/85/5 104/92/5
usemtl test/wall_2
f 104/89/6 101/90/6 102/91/6 103/88/6

