mtllib end_door.mtl
# vertices
v -64 -16 -64
v -64 -16 64
v -64 16 64
v -64 16 -64
v 0 16 64
v 0 -16 64
v 0 -16 -64
v 0 16 -64
v -64 16 32
v -64 16 64
v -64 112 64
v -64 112 32
v 0 112 64
v 0 16 64
v 0 16 32
v 0 112 32
v -64 16 -64
v -64 16 -32
v -64 112 -32
v -64 112 -64
v 0 112 -32
v 0 16 -32
v 0 16 -64
v 0 112 -64
v -64 112 -64
v -64 112 64
v -64 144 64
v -64 144 -64
v 0 144 64
v 0 112 64
v 0 112 -64
v 0 144 -64
v 0 16 -48
v 0 0 -48
v 0 0 48
v 0 16 48
v 320 -48 48
v 320 -48 -48
v 320 -32 48
v 320 -32 -48
v 0 128 -48
v 0 112 -48
v 0 112 48
v 0 128 48
v 320 64 48
v 320 64 -48
v 320 80 48
v 320 80 -48
v 0 112 -48
v 0 16 -48
v 0 16 -32
v 0 112 -32
v 320 -32 -48
v 320 -32 -64
v 320 64 -64
v 320 64 -48
v 0 112 32
v 0 16 32
v 0 16 48
v 0 112 48
v 320 -32 48
v 320 -32 32
v 320 64 48
v 320 64 32
v 320 -32 -64
v 320 -32 -48
v 320 64 -48
v 320 64 -64
v 464 64 -48
v 464 -32 -48
v 464 -32 -64
v 464 64 -64
v 320 -32 32
v 320 -32 48
v 320 64 48
v 320 64 32
v 480 64 48
v 480 -32 48
v 480 -32 32
v 480 64 32
v 320 64 -64
v 320 64 48
v 320 80 48
v 320 80 -64
v 464 80 48
v 464 64 48
v 464 64 -64
v 464 80 -64
v 320 -48 -48
v 320 -48 32
v 320 -32 32
v 320 -32 -48
v 464 -32 32
v 464 -48 32
v 464 -48 -48
v 464 -32 -48
v 464 -32 -48
v 464 -32 32
v 464 64 32
v 464 64 -48
v 480 64 32
v 480 -32 32
v 480 -32 -48
v 480 64 -48
v 400 -24 -16
v 392 -32 -16
v 392 -32 -0
v 400 -24 -0
v 408 -32 16
v 408 -24 8
v 408 -32 -32
v 408 -24 -24
v 424 -24 8
v 424 -32 16
v 440 -32 -0
v 424 -32 -32
v 440 -32 -16
v 432 -24 -16
v 424 -24 -24
v 432 -24 -0
v -48 16 -32
v -48 16 32
v -48 112 32
v -48 112 -32
v -32 112 32
v -32 16 32
v -32 16 -32
v -32 112 -32

# texture coordinates
vt 2 0.5
vt -2 0.5
vt -2 1.5
vt 2 1.5
vt 0 0.5
vt -2 -0.5
vt 0 -0.5
vt 0 -2
vt -2 -2
vt -2 2
vt 0 2
vt 2 -0.5
vt -1 1.5
vt -2 4.5
vt -1 4.5
vt 0 3.5
vt -2 3.5
vt -2 -1
vt 0 -1
vt -1 3.5
vt -1 0.5
vt 1 1.5
vt 1 4.5
vt 2 4.5
vt 0 1
vt -2 1
vt 2 3.5
vt 1 3.5
vt 1 0.5
vt -2 5.5
vt 2 5.5
vt 0 4.5
vt 1.5 0.5
vt 1.5 -0
vt -1.5 -0
vt -1.5 0.5
vt 10 -1.5
vt 0 -1.5
vt 0 1.5
vt 10 1.5
vt 10 -1
vt 0 -0
vt 0.5 -1.5
vt 0.5 -1
vt -2.5 -1
vt -2.5 -1.5
vt 1.5 4
vt 1.5 3.5
vt -1.5 3.5
vt -1.5 4
vt 10 2.5
vt 0 4
vt 10 2
vt 0.5 2
vt 0.5 2.5
vt -2.5 2.5
vt -2.5 2
vt 1 -1
vt 1 2
vt 2 -1
vt 1.5 -1
vt 1.5 2
vt 2 2
vt 14.5 2
vt 14.5 -1
vt 14.5 1.5
vt -1 -1
vt -1.5 -1
vt -1.5 2
vt -1 2
vt 15 2
vt 15 -1
vt 15 -1.5
vt -1.5 2.5
vt 2 2.5
vt 14.5 2.5
vt 14.5 -1.5
vt 1.5 -1.5
vt -1 -1.5
vt 15 1.5
vt 12.25 0.5
vt 12 0.5
vt 12 -0
vt 12.25 -0
vt 11.916666030883789 -0.70833331346511841
vt 11.666666030883789 -0.70833331346511841
vt 12.166666030883789 -1.2083332538604736
vt 12.166666030883789 -0.95833331346511841
vt 12.75 0.70833325386047363
vt 12.25 0.20833325386047363
vt 12.5 0.20833325386047363
vt 12.75 0.45833325386047363
vt 13.25 -0.75
vt 12.75 -0.75
vt 12.75 -1
vt 13.25 -1
vt 13.75 -0
vt 13.25 -0.5
vt 12.75 -0.5
vt 12.75 1
vt 13.25 1
vt 13.75 0.5
vt 13.5 0.25
vt 13.25 0.5
vt 12.75 0.5
vt 12.5 0.25
vt 12.5 -0.25
vt 13.5 -0.25
vt 12.75 0.25
vt 13.25 0.25
vt 13 -0.70833331346511841
vt 12.75 -0.95833331346511841
vt 12.75 -1.2083332538604736
vt 13.25 -0.70833331346511841
vt 12.833333969116211 0.20833325386047363
vt 12.333333969116211 0.70833325386047363
vt 12.333333969116211 0.45833325386047363
vt 12.583333969116211 0.20833325386047363
vt 13.25 -0
vt 13.5 -0
vt 13.5 0.5
vt 0 0.125
vt 1 0.125
vt 1 0.875
vt 0 0.875
vt -1.5 1
vt -1 1

# face normals
vn -1 0 0
vn 0 0 1
vn 0 -1 -0
vn -0 1 -0
vn 0 -0 -1
vn 1 0 0
vn -0.14834045293024464 -0.98893635286829762 -0
vn 0.14834045293024464 0.98893635286829762 -0
vn -0.14834045293024462 -0.98893635286829751 0
vn -0.049937616943892232 0 -0.99875233887784465
vn 0.049937616943892232 0 0.99875233887784465
vn 0.14834045293024462 0.98893635286829751 -0
vn -0.70710678118654746 0.70710678118654746 -0
vn -0.57735026918962584 0.57735026918962584 0.57735026918962584
vn -0.57735026918962584 0.57735026918962584 -0.57735026918962584
vn 0 0.70710678118654746 0.70710678118654746
vn -0 0.70710678118654746 -0.70710678118654746
vn 0.57735026918962584 0.57735026918962584 0.57735026918962584
vn 0.57735026918962584 0.57735026918962584 -0.57735026918962584
vn 0.70710678118654746 0.70710678118654746 -0

# objects
o entity0_brush0
usemtl test/goal_texture
f 1/1/1 2/2/1 3/3/1 4/4/1
usemtl test/goal_texture
f 5/5/2 3/2/2 2/6/2 6/7/2
usemtl test/goal_texture
f 6/8/3 2/9/3 1/10/3 7/11/3
usemtl test/goal_texture
f 8/11/4 4/10/4 3/9/4 5/8/4
usemtl test/goal_texture
f 7/7/5 1/6/5 4/2/5 8/5/5
usemtl test/goal_texture
f 8/1/6 5/2/6 6/6/6 7/12/6

o entity0_brush1
usemtl test/goal_texture
f 9/13/1 10/3/1 11/14/1 12/15/1
usemtl test/goal_texture
f 13/16/2 11/17/2 10/2/2 14/5/2
usemtl test/goal_texture
f 14/8/3 10/9/3 9/18/3 15/19/3
usemtl test/goal_texture
f 16/19/4 12/18/4 11/9/4 13/8/4
usemtl test/goal_texture
f 15/5/5 9/2/5 12/17/5 16/16/5
usemtl test/goal_texture
f 16/20/6 13/17/6 14/2/6 15/21/6

o entity0_brush2
usemtl test/goal_texture
f 17/4/1 18/22/1 19/23/1 20/24/1
usemtl test/goal_texture
f 21/16/2 19/17/2 18/2/2 22/5/2
usemtl test/goal_texture
f 22/25/3 18/26/3 17/10/3 23/11/3
usemtl test/goal_texture
f 24/11/4 20/10/4 19/26/4 21/25/4
usemtl test/goal_texture
f 23/5/5 17/2/5 20/17/5 24/16/5
usemtl test/goal_texture
f 24/27/6 21/28/6 22/29/6 23/1/6

o entity0_brush3
usemtl test/goal_texture
f 25/24/1 26/14/1 27/30/1 28/31/1
usemtl test/goal_texture
f 29/32/2 27/14/2 26/17/2 30/16/2
usemtl test/goal_texture
f 30/8/3 26/9/3 25/10/3 31/11/3
usemtl test/goal_texture
f 32/11/4 28/10/4 27/9/4 29/8/4
usemtl test/goal_texture
f 31/16/5 25/17/5 28/14/5 32/32/5
usemtl test/goal_texture
f 32/24/6 29/14/6 30/17/6 31/27/6

o entity0_brush4
usemtl test/goal_texture
f 33/33/1 34/34/1 35/35/1 36/36/1
usemtl test/goal_texture
f 37/37/7 35/38/7 34/39/7 38/40/7
usemtl test/goal_texture
f 39/41/2 36/5/2 35/42/2 37/37/2
usemtl test/goal_texture
f 38/37/5 34/42/5 33/5/5 40/41/5
usemtl test/goal_texture
f 40/40/8 33/39/8 36/38/8 39/37/8
usemtl test/goal_texture
f 38/43/6 40/44/6 39/45/6 37/46/6

o entity0_brush5
usemtl test/wall_2
f 41/47/1 42/48/1 43/49/1 44/50/1
usemtl test/wall_2
f 45/37/7 43/38/7 42/39/7 46/40/7
usemtl test/wall_2
f 47/51/2 44/52/2 43/16/2 45/53/2
usemtl test/wall_2
f 46/53/5 42/16/5 41/52/5 48/51/5
usemtl test/wall_2
f 48/40/8 41/39/8 44/38/8 47/37/8
usemtl test/wall_2
f 46/54/6 48/55/6 47/56/6 45/57/6

o entity0_brush6
usemtl test/wall_2
f 49/48/1 50/33/1 51/29/1 52/28/1
usemtl test/wall_2
f 53/40/9 51/25/9 50/39/9 54/53/9
usemtl test/wall_2
f 54/41/10 50/5/10 49/16/10 55/53/10
usemtl test/wall_2
f 56/53/11 52/16/11 51/5/11 53/41/11
usemtl test/wall_2
f 55/53/12 49/39/12 52/25/12 56/40/12
usemtl test/wall_2
f 56/54/6 53/44/6 54/58/6 55/59/6

o entity0_brush7
usemtl test/wall_2
f 57/20/1 58/21/1 59/36/1 60/49/1
usemtl test/wall_2
f 61/37/9 59/38/9 58/19/9 62/41/9
usemtl test/wall_2
f 63/53/2 60/16/2 59/5/2 61/41/2
usemtl test/wall_2
f 62/41/5 58/5/5 57/16/5 64/53/5
usemtl test/wall_2
f 64/41/12 57/19/12 60/38/12 63/37/12
usemtl test/wall_2
f 62/18/6 64/10/6 63/57/6 61/45/6

o entity0_brush8
usemtl test/wall_2
f 65/60/1 66/61/1 67/62/1 68/63/1
usemtl test/wall_2
f 69/64/2 67/53/2 66/41/2 70/65/2
usemtl test/wall_2
f 70/66/3 66/40/3 65/53/3 71/64/3
usemtl test/wall_2
f 72/64/4 68/53/4 67/40/4 69/66/4
usemtl test/wall_2
f 71/65/5 65/41/5 68/53/5 72/64/5
usemtl test/wall_2
f 72/63/6 69/62/6 70/61/6 71/60/6

o entity0_brush9
usemtl test/wall_2
f 73/67/1 74/68/1 75/69/1 76/70/1
usemtl test/wall_2
f 77/71/2 75/53/2 74/41/2 78/72/2
usemtl test/wall_2
f 78/73/3 74/37/3 73/41/3 79/72/3
usemtl test/wall_2
f 80/72/4 76/41/4 75/37/4 77/73/4
usemtl test/wall_2
f 79/72/5 73/41/5 76/53/5 80/71/5
usemtl test/wall_2
f 80/70/6 77/69/6 78/68/6 79/67/6

o entity0_brush10
usemtl test/wall_2
f 81/63/1 82/69/1 83/74/1 84/75/1
usemtl test/wall_2
f 85/76/2 83/51/2 82/53/2 86/64/2
usemtl test/wall_2
f 86/77/3 82/37/3 81/53/3 87/64/3
usemtl test/wall_2
f 88/64/4 84/53/4 83/37/4 85/77/4
usemtl test/wall_2
f 87/64/5 81/53/5 84/51/5 88/76/5
usemtl test/wall_2
f 88/75/6 85/74/6 86/69/6 87/63/6

o entity0_brush11
usemtl test/goal_texture
f 89/78/1 90/79/1 91/67/1 92/61/1
usemtl test/goal_texture
f 93/65/2 91/41/2 90/37/2 94/77/2
usemtl test/goal_texture
f 94/65/3 90/41/3 89/40/3 95/66/3
usemtl test/goal_texture
f 96/66/4 92/40/4 91/41/4 93/65/4
usemtl test/goal_texture
f 95/77/5 89/37/5 92/41/5 96/65/5
usemtl test/goal_texture
f 96/61/6 93/67/6 94/79/6 95/78/6

o entity0_brush12
usemtl test/wall_2
f 97/61/1 98/67/1 99/70/1 100/62/1
usemtl test/wall_2
f 101/71/2 99/64/2 98/65/2 102/72/2
usemtl test/wall_2
f 102/72/3 98/65/3 97/66/3 103/80/3
usemtl test/wall_2
f 104/80/4 100/66/4 99/65/4 101/72/4
usemtl test/wall_2
f 103/72/5 97/65/5 100/64/5 104/71/5
usemtl test/wall_2
f 104/62/6 101/70/6 102/67/6 103/61/6

o entity0_brush13
usemtl test/steel
f 105/81/13 106/82/13 107/83/13 108/84/13
usemtl test/steel
f 108/85/14 107/86/14 109/87/14 110/88/14
usemtl test/steel
f 111/89/15 106/90/15 105/91/15 112/92/15
usemtl test/steel
f 113/93/16 110/94/16 109/95/16 114/96/16
usemtl test/steel
f 115/97/3 114/98/3 109/99/3 107/84/3 106/81/3 111/100/3 116/101/3 117/102/3
usemtl test/defout_floor_b
f 118/103/4 119/104/4 112/105/4 105/106/4 108/107/4 110/99/4 113/98/4 120/108/4
usemtl test/steel
f 116/104/17 111/105/17 112/109/17 119/110/17
usemtl test/steel
f 120/111/18 113/112/18 114/113/18 115/114/18
usemtl test/steel
f 117/115/19 116/116/19 119/117/19 118/118/19
usemtl test/steel
f 120/119/20 115/120/20 117/121/20 118/104/20

o entity0_brush14
usemtl test/metalic_door
f 121/122/1 122/123/1 123/124/1 124/125/1
usemtl test/steel
f 125/20/2 123/49/2 122/36/2 126/21/2
usemtl test/steel
f 126/67/3 122/68/3 121/126/3 127/127/3
usemtl test/steel
f 128/127/4 124/126/4 123/68/4 125/67/4
usemtl test/steel
f 127/21/5 121/36/5 124/49/5 128/20/5
usemtl test/steel
f 128/28/6 125/20/6 126/21/6 127/29/6

