mtllib LV4.mtl
# vertices
v -64 -528 -64
v -64 -528 64
v -64 16 240
v -64 16 -64
v 64 16 240
v 64 -528 64
v 64 -528 -64
v 64 16 -64
v -80 144 -64
v -80 144 -48
v -80 160 -48
v -80 160 -64
v 80 160 -48
v 80 144 -48
v 80 144 -64
v 80 160 -64
v -80 0 -64
v -80 0 -48
v -80 144 -48
v -80 144 -64
v -64 144 -48
v -64 0 -48
v -64 0 -64
v -64 144 -64
v 64 0 -64
v 64 0 -48
v 64 144 -48
v 64 144 -64
v 80 144 -48
v 80 0 -48
v 80 0 -64
v 80 144 -64
v 64 -528 -64
v 64 -528 64
v 64 704 64
v 64 704 -64
v 2240 704 64
v 2240 -528 64
v 2240 -528 -64
v 2240 704 -64
v -64 -528 528
v -64 -528 656
v -64 704 656
v -64 704 528
v 1952 704 656
v 1952 -528 656
v 1952 -528 528
v 1952 704 528
v -192 -528 528
v -192 -528 656
v -192 704 656
v -192 704 528
v -64 704 656
v -64 -528 656
v -64 -528 528
v -64 704 528
v -64 160 -48
v -64 352 64
v -64 704 64
v -64 704 -64
v 64 704 64
v 64 352 64
v 64 160 -48
v 64 704 -64
v 2240 -528 -64
v 2240 -528 2560
v 2240 704 2560
v 2240 704 -64
v 2256 704 2560
v 2256 -528 2560
v 2256 -528 -64
v 2256 704 -64
v 1936 -528 656
v 1936 -528 2560
v 1936 704 2560
v 1936 704 656
v 1952 704 2560
v 1952 -528 2560
v 1952 -528 656
v 1952 704 656
v 1952 208 1200
v 1952 208 2560
v 1952 224 2560
v 1952 224 1200
v 2240 224 2560
v 2240 208 2560
v 2240 208 1200
v 2240 224 1200
v 1936 -528 2560
v 1936 -528 2576
v 1936 704 2576
v 1936 704 2560
v 2256 704 2576
v 2256 -528 2576
v 2256 -528 2560
v 2256 704 2560
v 1936 704 528
v 1936 704 2576
v 1936 720 2576
v 1936 720 528
v 2256 720 2576
v 2256 704 2576
v 2256 704 528
v 2256 720 528
v -176 704 64
v -176 704 528
v -176 720 528
v -176 720 64
v 2256 720 528
v 2256 704 528
v 2256 704 64
v 2256 720 64
v -192 208 288
v -192 336 416
v -192 704 416
v -192 704 288
v -64 704 416
v -64 336 416
v -64 208 288
v -64 704 288
v -192 160 288
v -192 160 416
v -192 336 416
v -192 208 288
v -64 336 416
v -64 160 416
v -64 160 288
v -64 208 288
v -192 160 -64
v -192 160 200
v -192 336 -64
v -64 336 -64
v -64 160 200
v -64 160 -64
v -192 336 -64
v -192 160 200
v -192 160 240
v -192 208 288
v -192 704 288
v -192 704 -64
v -64 704 288
v -64 208 288
v -64 160 240
v -64 160 200
v -64 704 -64
v -64 336 -64
v -192 160 240
v -192 160 288
v -192 208 288
v -64 208 288
v -64 160 288
v -64 160 240
v -192 128 288
v -192 128 416
v -192 160 416
v -192 160 288
v -64 160 416
v -64 128 416
v -64 128 288
v -64 160 288
v -192 128 -64
v -192 128 208
v -192 144 224
v -192 160 200
v -192 160 -64
v -64 144 224
v -64 128 208
v -64 160 200
v -64 128 -64
v -64 160 -64
v -192 144 224
v -192 160 240
v -192 160 200
v -64 160 240
v -64 144 224
v -64 160 200
v -192 128 208
v -192 128 248
v -192 144 224
v -64 144 224
v -64 128 248
v -64 128 208
v -192 144 224
v -192 128 248
v -192 128 288
v -192 160 288
v -192 160 240
v -64 160 288
v -64 128 288
v -64 128 248
v -64 160 240
v -64 144 224
v -192 -528 288
v -192 -528 416
v -192 16 416
v -192 101.33333333333333 288
v -64 16 416
v -64 -528 416
v -64 101.33333333333334 288
v -64 -528 288
v -192 101.33333333333334 288
v -192 16 416
v -192 128 416
v -192 128 288
v -64 128 416
v -64 16 416
v -64 128 288
v -64 101.33333333333334 288
v -192 -144 -64
v -192 128 208
v -192 128 -64
v -64 128 208
v -64 -144 -64
v -64 128 -64
v -192 -528 -64
v -192 -528 288
v -192 101.33333333333576 288
v -192 128 248
v -192 128 208
v -192 -144 -64
v -64 101.33333333333576 288
v -64 -528 288
v -64 128 248
v -64 -528 -64
v -64 128 208
v -64 -144 -64
v -192 101.33333333333576 288
v -192 128 288
v -192 128 248
v -64 128 288
v -64 101.33333333333574 288
v -64 128 248
v -192 336 416
v -192 448 528
v -192 704 528
v -192 704 416
v -64 704 528
v -64 448 528
v -64 336 416
v -64 704 416
v -192 160 416
v -192 160 528
v -192 448 528
v -192 336 416
v -64 448 528
v -64 160 528
v -64 160 416
v -64 336 416
v -192 128 416
v -192 128 528
v -192 160 528
v -192 160 416
v -64 160 528
v -64 128 528
v -64 128 416
v -64 160 416
v -192 -528 416
v -192 -528 528
v -192 -58.666666666664241 528
v -192 16 416
v -64 -58.666666666664241 528
v -64 -528 528
v -64 16 416
v -64 -528 416
v -192 16 416
v -192 -58.666666666664241 528
v -192 128 528
v -192 128 416
v -64 128 528
v -64 -58.666666666664248 528
v -64 128 416
v -64 16 416

# texture coordinates
vt 2 -16.5
vt -2 -16.5
vt -7.5 0.5
vt 2 0.5
vt -2 0.5
vt 2 -2
vt -2 -2
vt -2 2
vt 2 2
vt -2 -7.5
vt 2 -7.5
vt 2 4.5
vt 1.5 4.5
vt 1.5 5
vt 2 5
vt 2.5 5
vt -2.5 5
vt -2.5 4.5
vt 2.5 4.5
vt 2.5 1.5
vt -2.5 1.5
vt -2.5 2
vt 2.5 2
vt 2 -0
vt 1.5 -0
vt -2 4.5
vt -2.5 -0
vt -2 -0
vt -2 1.5
vt 2.5 -0
vt 2 1.5
vt -2 22
vt 2 22
vt 70 22
vt 70 -16.5
vt 70 -2
vt 70 2
vt -16.5 -16.5
vt -20.5 -16.5
vt -20.5 22
vt -16.5 22
vt 61 22
vt 61 -16.5
vt 61 -20.5
vt -2 -20.5
vt -6 22
vt -6 -16.5
vt -6 -20.5
vt -2 11
vt 2 11
vt -2 5
vt -80 -16.5
vt -80 22
vt 70.5 22
vt 70.5 -16.5
vt 70.5 -80
vt 70 -80
vt 70.5 2
vt 60.5 22
vt 60.5 -16.5
vt 61 -80
vt 60.5 -80
vt 60.5 -20.5
vt -37.5 6.5
vt -80 6.5
vt -80 7
vt -37.5 7
vt 70 7
vt 61 7
vt 61 6.5
vt 70 6.5
vt 61 -37.5
vt 70 -37.5
vt -80.5 -16.5
vt -80.5 22
vt 70.5 -80.5
vt 60.5 -80.5
vt -80.5 22.5
vt -16.5 22.5
vt 70.5 22.5
vt 60.5 22.5
vt -2 22.5
vt -5.5 22.5
vt -5.5 22
vt -5.5 -16.5
vt -5.5 -2
vt 70.5 -2
vt -9 6.5
vt -13 10.5
vt -13 22
vt -9 22
vt -6 10.5
vt -2 10.5
vt -2 -13
vt -6 -13
vt -6 -9
vt -2 -9
vt -2 6.5
vt -6 6.5
vt -9 5
vt -13 5
vt -6 5
vt -6.25 5
vt 2 10.5
vt -6 2
vt -6 -6.25
vt -2 -6.25
vt -7.5 5
vt -6 -7.5
vt -9 4
vt -13 4
vt -6 4
vt -2 4
vt 2 4
vt -6.5 4
vt -7 4.5
vt -2 -7
vt -6 -7
vt -6 -6.5
vt -2 -6.5
vt -7.75 4
vt -6 -7.75
vt -2 -7.75
vt -9 -16.5
vt -13 -16.5
vt -13 0.5
vt -9 3.1666667461395264
vt -6 0.5
vt -6 3.1666667461395264
vt -2 3.1666667461395264
vt 2 -4.5
vt -2 -4.5
vt -6 -4.5
vt -16.5 14
vt -6 14
vt -2 14
vt -16.5 5
vt -16.5 4
vt -16.5 -1.8333333730697632
vt -2 -1.8333333730697632
vt -6 -1.8333333730697632

# face normals
vn -1 0 -0
vn 0 -0.30782028541466255 0.95144451855441148
vn 0 -1 -0
vn -0 1 -0
vn 0 -0 -1
vn 1 0 0
vn 0 0 1
vn 0 -0.50387102552408625 0.86377890089843345
vn 0 -0.029399051601892736 -0.99956775446435298
vn 0 -0.70710678118654746 0.70710678118654746
vn 0 0.70710678118654746 -0.70710678118654746
vn 0 0.83205029433784372 0.55470019622522915
vn 0 -0.83205029433784372 -0.55470019622522915

# objects
o entity0_brush0
usemtl test/wall_2
f 1/1/1 2/2/1 3/3/1 4/4/1
usemtl test/plates
f 5/4/2 3/5/2 2/2/2 6/1/2
usemtl test/wall_2
f 6/6/3 2/7/3 1/8/3 7/9/3
usemtl test/metalic_floor
f 8/9/4 4/8/4 3/10/4 5/11/4
usemtl test/wall_2
f 7/1/5 1/2/5 4/5/5 8/4/5
usemtl test/plates
f 8/4/6 5/3/6 6/2/6 7/1/6

o entity0_brush1
usemtl test/wall_2
f 9/12/1 10/13/1 11/14/1 12/15/1
usemtl test/wall_2
f 13/16/7 11/17/7 10/18/7 14/19/7
usemtl test/wall_2
f 14/20/3 10/21/3 9/22/3 15/23/3
usemtl test/wall_2
f 16/23/4 12/22/4 11/21/4 13/20/4
usemtl test/wall_2
f 15/19/5 9/18/5 12/17/5 16/16/5
usemtl test/wall_2
f 16/15/6 13/14/6 14/13/6 15/12/6

o entity0_brush2
usemtl test/wall_2
f 17/24/1 18/25/1 19/13/1 20/12/1
usemtl test/wall_2
f 21/26/7 19/18/7 18/27/7 22/28/7
usemtl test/wall_2
f 22/29/3 18/21/3 17/22/3 23/8/3
usemtl test/wall_2
f 24/8/4 20/22/4 19/21/4 21/29/4
usemtl test/wall_2
f 23/28/5 17/27/5 20/18/5 24/26/5
usemtl test/wall_2
f 24/12/6 21/13/6 22/25/6 23/24/6

o entity0_brush3
usemtl test/wall_2
f 25/24/1 26/25/1 27/13/1 28/12/1
usemtl test/wall_2
f 29/19/7 27/12/7 26/24/7 30/30/7
usemtl test/wall_2
f 30/20/3 26/31/3 25/9/3 31/23/3
usemtl test/wall_2
f 32/23/4 28/9/4 27/31/4 29/20/4
usemtl test/wall_2
f 31/30/5 25/24/5 28/12/5 32/19/5
usemtl test/wall_2
f 32/12/6 29/13/6 30/25/6 31/24/6

o entity0_brush4
usemtl test/wall_2
f 33/1/1 34/2/1 35/32/1 36/33/1
usemtl test/wall_2
f 37/34/7 35/33/7 34/1/7 38/35/7
usemtl test/wall_2
f 38/36/3 34/6/3 33/9/3 39/37/3
usemtl test/wall_2
f 40/37/4 36/9/4 35/6/4 37/36/4
usemtl test/wall_2
f 39/35/5 33/1/5 36/33/5 40/34/5
usemtl test/wall_2
f 40/33/6 37/32/6 38/2/6 39/1/6

o entity0_brush5
usemtl test/wall_2
f 41/38/1 42/39/1 43/40/1 44/41/1
usemtl test/wall_2
f 45/42/7 43/32/7 42/2/7 46/43/7
usemtl test/wall_2
f 46/44/3 42/45/3 41/2/3 47/43/3
usemtl test/wall_2
f 48/43/4 44/2/4 43/45/4 45/44/4
usemtl test/wall_2
f 47/43/5 41/2/5 44/32/5 48/42/5
usemtl test/wall_2
f 48/41/6 45/40/6 46/39/6 47/38/6

o entity0_brush6
usemtl test/wall_2
f 49/38/1 50/39/1 51/40/1 52/41/1
usemtl test/wall_2
f 53/32/7 51/46/7 50/47/7 54/2/7
usemtl test/wall_2
f 54/45/3 50/48/3 49/47/3 55/2/3
usemtl test/wall_2
f 56/2/4 52/47/4 51/48/4 53/45/4
usemtl test/wall_2
f 55/2/5 49/47/5 52/46/5 56/32/5
usemtl test/wall_2
f 56/41/6 53/40/6 54/39/6 55/38/6

o entity0_brush7
usemtl test/wall_2
f 57/14/1 58/49/1 59/32/1 60/33/1
usemtl test/wall_2
f 61/33/7 59/32/7 58/49/7 62/50/7
usemtl test/wall_2
f 62/50/8 58/49/8 57/51/8 63/15/8
usemtl test/wall_2
f 64/9/4 60/8/4 59/7/4 61/6/4
usemtl test/wall_2
f 63/15/9 57/51/9 60/32/9 64/33/9
usemtl test/wall_2
f 63/14/6 64/33/6 61/32/6 62/49/6

o entity0_brush8
usemtl test/wall_2
f 65/1/1 66/52/1 67/53/1 68/33/1
usemtl test/wall_2
f 69/54/7 67/34/7 66/35/7 70/55/7
usemtl test/wall_2
f 70/56/3 66/57/3 65/37/3 71/58/3
usemtl test/wall_2
f 72/58/4 68/37/4 67/57/4 69/56/4
usemtl test/wall_2
f 71/55/5 65/35/5 68/34/5 72/54/5
usemtl test/wall_2
f 72/33/6 69/53/6 70/52/6 71/1/6

o entity0_brush9
usemtl test/wall_2
f 73/39/1 74/52/1 75/53/1 76/40/1
usemtl test/wall_2
f 77/42/7 75/59/7 74/60/7 78/43/7
usemtl test/wall_2
f 78/61/3 74/62/3 73/63/3 79/44/3
usemtl test/wall_2
f 80/44/4 76/63/4 75/62/4 77/61/4
usemtl test/wall_2
f 79/43/5 73/60/5 76/59/5 80/42/5
usemtl test/wall_2
f 80/40/6 77/53/6 78/52/6 79/39/6

o entity0_brush10
usemtl test/wall_2
f 81/64/1 82/65/1 83/66/1 84/67/1
usemtl test/wall_2
f 85/68/7 83/69/7 82/70/7 86/71/7
usemtl test/plates
f 86/57/3 82/61/3 81/72/3 87/73/3
usemtl test/metalic_floor
f 88/73/4 84/72/4 83/61/4 85/57/4
usemtl test/plates
f 87/71/5 81/70/5 84/69/5 88/68/5
usemtl test/wall_2
f 88/67/6 85/66/6 86/65/6 87/64/6

o entity0_brush11
usemtl test/wall_2
f 89/52/1 90/74/1 91/75/1 92/53/1
usemtl test/wall_2
f 93/54/7 91/59/7 90/60/7 94/55/7
usemtl test/wall_2
f 94/76/3 90/77/3 89/62/3 95/56/3
usemtl test/wall_2
f 96/56/4 92/62/4 91/77/4 93/76/4
usemtl test/wall_2
f 95/55/5 89/60/5 92/59/5 96/54/5
usemtl test/wall_2
f 96/53/6 93/75/6 94/74/6 95/52/6

o entity0_brush12
usemtl test/plates
f 97/41/1 98/75/1 99/78/1 100/79/1
usemtl test/plates
f 101/80/7 99/81/7 98/59/7 102/54/7
usemtl test/plates
f 102/76/3 98/77/3 97/60/3 103/55/3
usemtl test/plates
f 104/55/4 100/60/4 99/77/4 101/76/4
usemtl test/plates
f 103/54/5 97/59/5 100/81/5 104/80/5
usemtl test/plates
f 104/79/6 101/78/6 102/75/6 103/41/6

o entity0_brush13
usemtl test/plates
f 105/32/1 106/41/1 107/79/1 108/82/1
usemtl test/plates
f 109/80/7 107/83/7 106/84/7 110/54/7
usemtl test/plates
f 110/55/3 106/85/3 105/86/3 111/87/3
usemtl test/plates
f 112/87/4 108/86/4 107/85/4 109/55/4
usemtl test/plates
f 111/54/5 105/84/5 108/83/5 112/80/5
usemtl test/plates
f 112/82/6 109/79/6 110/41/6 111/32/6

o entity0_brush14
usemtl test/wall_2
f 113/88/1 114/89/1 115/90/1 116/91/1
usemtl test/wall_2
f 117/32/7 115/46/7 114/92/7 118/93/7
usemtl test/wall_2
f 118/94/10 114/95/10 113/96/10 119/97/10
usemtl test/wall_2
f 120/97/4 116/96/4 115/95/4 117/94/4
usemtl test/wall_2
f 119/98/5 113/99/5 116/46/5 120/32/5
usemtl test/wall_2
f 119/88/6 120/91/6 117/90/6 118/89/6

o entity0_brush15
usemtl test/wall_2
f 121/100/1 122/101/1 123/89/1 124/88/1
usemtl test/wall_2
f 125/93/7 123/92/7 122/102/7 126/51/7
usemtl test/wall_2
f 126/94/3 122/95/3 121/96/3 127/97/3
usemtl test/wall_2
f 128/97/11 124/96/11 123/95/11 125/94/11
usemtl test/wall_2
f 127/51/5 121/102/5 124/99/5 128/98/5
usemtl test/wall_2
f 128/88/6 125/89/6 126/101/6 127/100/6

o entity0_brush16
usemtl test/wall_2
f 129/15/1 130/103/1 131/104/1
usemtl test/wall_2
f 132/8/12 131/105/12 130/106/12 133/107/12
usemtl test/wall_2
f 133/107/3 130/106/3 129/105/3 134/8/3
usemtl test/wall_2
f 134/51/5 129/102/5 131/92/5 132/93/5
usemtl test/wall_2
f 133/103/6 134/15/6 132/104/6

o entity0_brush17
usemtl test/wall_2
f 135/104/1 136/103/1 137/108/1 138/88/1 139/91/1 140/33/1
usemtl test/wall_2
f 141/32/7 139/46/7 138/99/7 142/98/7
usemtl test/wall_2
f 142/97/10 138/96/10 137/109/10 143/10/10
usemtl test/wall_2
f 143/10/3 137/109/3 136/106/3 144/107/3
usemtl test/wall_2
f 145/8/4 140/105/4 139/96/4 141/97/4
usemtl test/wall_2
f 144/107/13 136/106/13 135/105/13 146/8/13
usemtl test/wall_2
f 146/93/5 135/92/5 140/46/5 145/32/5
usemtl test/wall_2
f 145/33/6 141/91/6 142/88/6 143/108/6 144/103/6 146/104/6

o entity0_brush18
usemtl test/wall_2
f 147/108/1 148/100/1 149/88/1
usemtl test/wall_2
f 150/98/7 149/99/7 148/102/7 151/51/7
usemtl test/wall_2
f 151/97/3 148/96/3 147/109/3 152/10/3
usemtl test/wall_2
f 152/10/11 147/109/11 149/96/11 150/97/11
usemtl test/goal_texture
f 151/100/6 152/108/6 150/88/6

o entity0_brush19
usemtl test/goal_texture
f 153/110/1 154/111/1 155/101/1 156/100/1
usemtl test/goal_texture
f 157/51/7 155/102/7 154/112/7 158/113/7
usemtl test/goal_texture
f 158/94/3 154/95/3 153/96/3 159/97/3
usemtl test/goal_texture
f 160/97/4 156/96/4 155/95/4 157/94/4
usemtl test/goal_texture
f 159/113/5 153/112/5 156/102/5 160/51/5
usemtl test/goal_texture
f 160/100/6 157/101/6 158/111/6 159/110/6

o entity0_brush20
usemtl test/wall_2
f 161/114/1 162/115/1 163/116/1 164/103/1 165/15/1
usemtl test/wall_2
f 166/117/10 163/118/10 162/119/10 167/120/10
usemtl test/wall_2
f 168/107/12 164/106/12 163/118/12 166/117/12
usemtl test/wall_2
f 167/120/3 162/119/3 161/105/3 169/8/3
usemtl test/wall_2
f 170/8/4 165/105/4 164/106/4 168/107/4
usemtl test/wall_2
f 169/113/5 161/112/5 165/102/5 170/51/5
usemtl test/wall_2
f 169/114/6 170/15/6 168/103/6 166/116/6 167/115/6

o entity0_brush21
usemtl test/wall_2
f 171/116/1 172/108/1 173/103/1
usemtl test/wall_2
f 174/10/10 172/109/10 171/118/10 175/117/10
usemtl test/wall_2
f 176/107/4 173/106/4 172/109/4 174/10/4
usemtl test/wall_2
f 175/117/13 171/118/13 173/106/13 176/107/13
usemtl test/wall_2
f 174/108/6 175/116/6 176/103/6

o entity0_brush22
usemtl test/wall_2
f 177/115/1 178/121/1 179/116/1
usemtl test/wall_2
f 180/117/12 179/118/12 178/122/12 181/123/12
usemtl test/wall_2
f 181/123/3 178/122/3 177/119/3 182/120/3
usemtl test/wall_2
f 182/120/11 177/119/11 179/118/11 180/117/11
usemtl test/wall_2
f 181/121/6 182/115/6 180/116/6

o entity0_brush23
usemtl test/goal_texture
f 183/116/1 184/121/1 185/110/1 186/100/1 187/108/1
usemtl test/goal_texture
f 188/51/7 186/102/7 185/112/7 189/113/7
usemtl test/goal_texture
f 189/97/3 185/96/3 184/122/3 190/123/3
usemtl test/goal_texture
f 191/10/4 187/109/4 186/96/4 188/97/4
usemtl test/goal_texture
f 190/123/13 184/122/13 183/118/13 192/117/13
usemtl test/goal_texture
f 192/117/11 183/118/11 187/109/11 191/10/11
usemtl test/goal_texture
f 189/110/6 190/121/6 192/116/6 191/108/6 188/100/6

o entity0_brush24
usemtl test/wall_2
f 193/124/1 194/125/1 195/126/1 196/127/1
usemtl test/wall_2
f 197/5/7 195/128/7 194/47/7 198/2/7
usemtl test/wall_2
f 199/97/12 196/96/12 195/95/12 197/94/12
usemtl test/wall_2
f 198/94/3 194/95/3 193/96/3 200/97/3
usemtl test/wall_2
f 200/2/5 193/47/5 196/129/5 199/130/5
usemtl test/wall_2
f 197/126/6 198/125/6 200/124/6 199/127/6

o entity0_brush25
usemtl test/wall_2
f 201/127/1 202/126/1 203/111/1 204/110/1
usemtl test/wall_2
f 205/113/7 203/112/7 202/128/7 206/5/7
usemtl test/wall_2
f 207/97/4 204/96/4 203/95/4 205/94/4
usemtl test/wall_2
f 206/94/13 202/95/13 201/96/13 208/97/13
usemtl test/wall_2
f 208/130/5 201/129/5 204/112/5 207/113/5
usemtl test/wall_2
f 206/126/6 208/127/6 207/110/6 205/111/6

o entity0_brush26
usemtl test/wall_2
f 209/131/1 210/115/1 211/114/1
usemtl test/wall_2
f 212/120/10 210/119/10 209/105/10 213/8/10
usemtl test/wall_2
f 214/8/4 211/105/4 210/119/4 212/120/4
usemtl test/wall_2
f 213/132/5 209/133/5 211/112/5 214/113/5
usemtl test/wall_2
f 212/115/6 213/131/6 214/114/6

o entity0_brush27
usemtl test/wall_2
f 215/1/1 216/124/1 217/127/1 218/121/1 219/115/1 220/131/1
usemtl test/wall_2
f 221/130/7 217/129/7 216/47/7 222/2/7
usemtl test/wall_2
f 223/123/12 218/122/12 217/96/12 221/97/12
usemtl test/wall_2
f 222/97/3 216/96/3 215/105/3 224/8/3
usemtl test/wall_2
f 225/120/4 219/119/4 218/122/4 223/123/4
usemtl test/wall_2
f 226/8/11 220/105/11 219/119/11 225/120/11
usemtl test/wall_2
f 224/2/5 215/47/5 220/133/5 226/132/5
usemtl test/wall_2
f 221/127/6 222/124/6 224/1/6 226/131/6 225/115/6 223/121/6

o entity0_brush28
usemtl test/goal_texture
f 227/127/1 228/110/1 229/121/1
usemtl test/goal_texture
f 230/113/7 228/112/7 227/129/7 231/130/7
usemtl test/goal_texture
f 232/123/4 229/122/4 228/96/4 230/97/4
usemtl test/goal_texture
f 231/97/13 227/96/13 229/122/13 232/123/13
usemtl test/goal_texture
f 232/121/6 230/110/6 231/127/6

o entity0_brush29
usemtl test/wall_2
f 233/89/1 234/134/1 235/41/1 236/90/1
usemtl test/wall_2
f 237/32/7 235/46/7 234/135/7 238/136/7
usemtl test/wall_2
f 238/2/10 234/47/10 233/95/10 239/94/10
usemtl test/wall_2
f 240/94/4 236/95/4 235/47/4 237/2/4
usemtl test/wall_2
f 239/93/5 233/92/5 236/46/5 240/32/5
usemtl test/wall_2
f 239/89/6 240/90/6 237/41/6 238/134/6

o entity0_brush30
usemtl test/wall_2
f 241/101/1 242/137/1 243/134/1 244/89/1
usemtl test/wall_2
f 245/136/7 243/135/7 242/102/7 246/51/7
usemtl test/wall_2
f 246/2/3 242/47/3 241/95/3 247/94/3
usemtl test/wall_2
f 248/94/11 244/95/11 243/47/11 245/2/11
usemtl test/wall_2
f 247/51/5 241/102/5 244/92/5 248/93/5
usemtl test/wall_2
f 248/89/6 245/134/6 246/137/6 247/101/6

o entity0_brush31
usemtl test/wall_2
f 249/111/1 250/138/1 251/137/1 252/101/1
usemtl test/wall_2
f 253/51/7 251/102/7 250/112/7 254/113/7
usemtl test/wall_2
f 254/2/3 250/47/3 249/95/3 255/94/3
usemtl test/wall_2
f 256/94/4 252/95/4 251/47/4 253/2/4
usemtl test/wall_2
f 255/113/5 249/112/5 252/102/5 256/51/5
usemtl test/wall_2
f 256/101/6 253/137/6 254/138/6 255/111/6

o entity0_brush32
usemtl test/wall_2
f 257/125/1 258/38/1 259/139/1 260/126/1
usemtl test/wall_2
f 261/140/7 259/141/7 258/47/7 262/2/7
usemtl test/wall_2
f 263/94/12 260/95/12 259/47/12 261/2/12
usemtl test/wall_2
f 262/2/3 258/47/3 257/95/3 264/94/3
usemtl test/wall_2
f 264/2/5 257/47/5 260/128/5 263/5/5
usemtl test/wall_2
f 261/139/6 262/38/6 264/125/6 263/126/6

o entity0_brush33
usemtl test/wall_2
f 265/126/1 266/139/1 267/138/1 268/111/1
usemtl test/wall_2
f 269/113/7 267/112/7 266/141/7 270/140/7
usemtl test/wall_2
f 271/94/4 268/95/4 267/47/4 269/2/4
usemtl test/wall_2
f 270/2/13 266/47/13 265/95/13 272/94/13
usemtl test/wall_2
f 272/5/5 265/128/5 268/112/5 271/113/5
usemtl test/wall_2
f 270/139/6 272/126/6 271/111/6 269/138/6

