mtllib level.mtl
# vertices
v -64 -176 -64
v -64 -176 240
v -64 16 240
v -64 16 -64
v 64 16 240
v 64 -176 240
v 64 -176 -64
v 64 16 -64
v -64 -176 384
v -64 -176 688
v -64 16 688
v -64 16 384
v 64 16 688
v 64 -176 688
v 64 -176 384
v 64 16 384
v -80 -176 -64
v -80 -176 688
v -80 192 688
v -80 192 -64
v -64 192 688
v -64 -176 688
v -64 -176 -64
v -64 192 -64
v 64 -176 -64
v 64 -176 688
v 64 192 688
v 64 192 -64
v 80 192 688
v 80 -176 688
v 80 -176 -64
v 80 192 -64
v -64 176 -48
v -64 176 688
v -64 192 688
v -64 192 -48
v 64 192 688
v 64 176 688
v 64 176 -48
v 64 192 -48
v -64 16 -64
v -64 16 -48
v -64 192 -48
v -64 192 -64
v 64 192 -48
v 64 16 -48
v 64 16 -64
v 64 192 -64
v -64 144 672
v -64 144 688
v -64 176 688
v -64 176 672
v 64 176 688
v 64 144 688
v 64 144 672
v 64 176 672

# texture coordinates
vt 2 -5.5
vt -7.5 -5.5
vt -7.5 0.5
vt 2 0.5
vt -2 0.5
vt -2 -5.5
vt 2 -7.5
vt -2 -7.5
vt -2 2
vt 2 2
vt -12 -5.5
vt -21.5 -5.5
vt -21.5 0.5
vt -12 0.5
vt 2 -21.5
vt -2 -21.5
vt -2 -12
vt 2 -12
vt -21.5 6
vt 2 6
vt -2 6
vt -2.5 6
vt -2.5 -5.5
vt -2.5 -21.5
vt -2.5 2
vt 1.5 6
vt 1.5 -5.5
vt 1.5 -21.5
vt 1.5 2
vt 1.5 5.5
vt -21.5 5.5
vt -2 5.5
vt 2 5.5
vt -2 1.5
vt 2 1.5
vt 1.5 0.5
vt -21 4.5
vt -21.5 4.5
vt -21 5.5
vt -2 4.5
vt 2 4.5
vt -2 -21
vt 2 -21

# face normals
vn -1 0 0
vn 0 0 1
vn 0 -1 -0
vn -0 1 -0
vn 0 -0 -1
vn 1 0 0

# objects
o entity0_brush0
usemtl test/wall
f 1/1/1 2/2/1 3/3/1 4/4/1
usemtl test/wall
f 5/4/2 3/5/2 2/6/2 6/1/2
usemtl test/wall
f 6/7/3 2/8/3 1/9/3 7/10/3
usemtl test/plates
f 8/10/4 4/9/4 3/8/4 5/7/4
usemtl test/wall
f 7/1/5 1/6/5 4/5/5 8/4/5
usemtl test/wall
f 8/4/6 5/3/6 6/2/6 7/1/6

o entity0_brush1
usemtl test/wall
f 9/11/1 10/12/1 11/13/1 12/14/1
usemtl test/wall
f 13/4/2 11/5/2 10/6/2 14/1/2
usemtl test/wall
f 14/15/3 10/16/3 9/17/3 15/18/3
usemtl test/plates
f 16/18/4 12/17/4 11/16/4 13/15/4
usemtl test/wall
f 15/1/5 9/6/5 12/5/5 16/4/5
usemtl test/wall
f 16/14/6 13/13/6 14/12/6 15/11/6

o entity0_brush2
usemtl test/wall
f 17/1/1 18/12/1 19/19/1 20/20/1
usemtl test/wall
f 21/21/2 19/22/2 18/23/2 22/6/2
usemtl test/wall
f 22/16/3 18/24/3 17/25/3 23/9/3
usemtl test/wall
f 24/9/4 20/25/4 19/24/4 21/16/4
usemtl test/wall
f 23/6/5 17/23/5 20/22/5 24/21/5
usemtl test/wall
f 24/20/6 21/19/6 22/12/6 23/1/6

o entity0_brush3
usemtl test/wall
f 25/1/1 26/12/1 27/19/1 28/20/1
usemtl test/wall
f 29/20/2 27/26/2 26/27/2 30/1/2
usemtl test/wall
f 30/15/3 26/28/3 25/29/3 31/10/3
usemtl test/wall
f 32/10/4 28/29/4 27/28/4 29/15/4
usemtl test/wall
f 31/1/5 25/27/5 28/26/5 32/20/5
usemtl test/wall
f 32/20/6 29/19/6 30/12/6 31/1/6

o entity0_brush4
usemtl test/wall
f 33/30/1 34/31/1 35/19/1 36/26/1
usemtl test/wall
f 37/20/2 35/21/2 34/32/2 38/33/2
usemtl test/wall
f 38/15/3 34/16/3 33/34/3 39/35/3
usemtl test/wall
f 40/35/4 36/34/4 35/16/4 37/15/4
usemtl test/wall
f 39/33/5 33/32/5 36/21/5 40/20/5
usemtl test/wall
f 40/26/6 37/19/6 38/31/6 39/30/6

o entity0_brush5
usemtl test/wall
f 41/4/1 42/36/1 43/26/1 44/20/1
usemtl test/wall
f 45/20/2 43/21/2 42/5/2 46/4/2
usemtl test/wall
f 46/35/3 42/34/3 41/9/3 47/10/3
usemtl test/wall
f 48/10/4 44/9/4 43/34/4 45/35/4
usemtl test/wall
f 47/4/5 41/5/5 44/21/5 48/20/5
usemtl test/wall
f 48/20/6 45/26/6 46/36/6 47/4/6

o entity0_brush6
usemtl test/wall
f 49/37/1 50/38/1 51/31/1 52/39/1
usemtl test/wall
f 53/33/2 51/32/2 50/40/2 54/41/2
usemtl test/wall
f 54/15/3 50/16/3 49/42/3 55/43/3
usemtl test/wall
f 56/43/4 52/42/4 51/16/4 53/15/4
usemtl test/wall
f 55/41/5 49/40/5 52/32/5 56/33/5
usemtl test/wall
f 56/39/6 53/31/6 54/38/6 55/37/6

